<?xml version="1.0" encoding="UTF-8" standalone="no"?><!DOCTYPE svg PUBLIC "-//W3C//DTD SVG 1.1//EN" "http://www.w3.org/Graphics/SVG/1.1/DTD/svg11.dtd"><svg width="100%" height="100%" viewBox="0 0 153 38" version="1.1" xmlns="http://www.w3.org/2000/svg" xmlns:xlink="http://www.w3.org/1999/xlink" xml:space="preserve" xmlns:serif="http://www.serif.com/" style="fill-rule:evenodd;clip-rule:evenodd;stroke-linejoin:round;stroke-miterlimit:2;"><g id="Logo_Colour"><g id="Text"><g id="CAT"><path id="T" d="M142.551,11.687l-6.183,0l0,-3.134l15.957,0l-0,3.134l-6.184,0l0,17.039l-3.59,-0l0,-17.039Z" style="fill:#0d97ce;fill-rule:nonzero;"/><path id="A" d="M127.887,8.553l3.105,0l8.691,20.174l-4.103,0l-1.88,-4.615l-8.748,-0l-1.824,4.615l-4.018,0l8.777,-20.174Zm4.559,12.481l-3.106,-8.207l-3.163,8.207l6.269,-0Z" style="fill:#0d97ce;fill-rule:nonzero;"/><path id="C" d="M116.146,13.283c-0.532,-0.722 -1.225,-1.249 -2.079,-1.582c-0.855,-0.332 -1.691,-0.498 -2.508,-0.498c-1.046,-0 -1.995,0.189 -2.85,0.57c-0.855,0.38 -1.591,0.902 -2.208,1.568c-0.617,0.665 -1.092,1.443 -1.424,2.336c-0.333,0.893 -0.499,1.861 -0.499,2.905c0,1.103 0.161,2.109 0.485,3.021c0.322,0.911 0.783,1.695 1.382,2.351c0.599,0.655 1.315,1.163 2.151,1.523c0.836,0.362 1.776,0.541 2.821,0.541c1.044,0 2.042,-0.213 2.878,-0.641c0.836,-0.427 1.51,-0.993 2.023,-1.696l2.879,2.024c-0.894,1.121 -1.986,1.989 -3.278,2.607c-1.291,0.617 -2.801,0.926 -4.53,0.926c-1.576,0 -3.025,-0.261 -4.345,-0.783c-1.321,-0.522 -2.456,-1.254 -3.406,-2.194c-0.95,-0.94 -1.691,-2.061 -2.223,-3.363c-0.532,-1.301 -0.798,-2.74 -0.798,-4.317c-0,-1.576 0.28,-3.073 0.841,-4.373c0.56,-1.3 1.329,-2.408 2.308,-3.32c0.978,-0.911 2.133,-1.614 3.462,-2.109c1.329,-0.493 2.773,-0.741 4.331,-0.741c0.645,0 1.32,0.062 2.023,0.186c0.703,0.125 1.377,0.314 2.023,0.57c0.646,0.256 1.254,0.575 1.824,0.954c0.57,0.38 1.055,0.836 1.454,1.368l-2.735,2.166l-0.002,0.001Z" style="fill:#0d97ce;fill-rule:nonzero;"/></g><g id="GEO"><path id="O" d="M77.139,18.582c-0,-1.614 0.271,-3.072 0.812,-4.373c0.541,-1.3 1.292,-2.407 2.251,-3.32c0.959,-0.911 2.098,-1.614 3.419,-2.109c1.32,-0.493 2.759,-0.74 4.317,-0.74c1.557,-0 3.03,0.247 4.359,0.74c1.329,0.495 2.479,1.197 3.448,2.109c0.969,0.911 1.724,2.019 2.266,3.32c0.541,1.302 0.812,2.759 0.812,4.373c0,1.615 -0.271,3.017 -0.812,4.317c-0.541,1.302 -1.297,2.422 -2.266,3.363c-0.969,0.941 -2.119,1.672 -3.448,2.194c-1.329,0.522 -2.783,0.783 -4.359,0.783c-1.577,0 -2.997,-0.261 -4.317,-0.783c-1.321,-0.522 -2.46,-1.254 -3.419,-2.194c-0.959,-0.94 -1.71,-2.061 -2.251,-3.363c-0.541,-1.3 -0.812,-2.74 -0.812,-4.317Zm3.904,0c-0,1.084 0.165,2.077 0.498,2.978c0.333,0.902 0.807,1.686 1.425,2.351c0.617,0.665 1.348,1.182 2.194,1.553c0.845,0.37 1.781,0.556 2.807,0.556c1.025,-0 1.965,-0.185 2.82,-0.556c0.855,-0.371 1.59,-0.888 2.208,-1.553c0.618,-0.664 1.092,-1.449 1.425,-2.351c0.332,-0.903 0.498,-1.894 0.498,-2.978c-0,-1.083 -0.167,-2.013 -0.498,-2.905c-0.333,-0.893 -0.802,-1.672 -1.411,-2.336c-0.608,-0.664 -1.34,-1.188 -2.194,-1.568c-0.855,-0.381 -1.805,-0.57 -2.85,-0.57c-1.044,-0 -1.989,0.189 -2.835,0.57c-0.846,0.38 -1.572,0.902 -2.181,1.568c-0.607,0.665 -1.078,1.443 -1.411,2.336c-0.332,0.893 -0.498,1.861 -0.498,2.905l0.003,0Z" style="fill:#0f1031;fill-rule:nonzero;"/><path id="E" d="M62.279,8.553l13.364,0l-0,3.134l-9.774,0l0,5.129l9.262,0l-0,3.02l-9.262,0l0,5.699l10.287,0l0,3.191l-13.877,-0l0,-20.173Z" style="fill:#0f1031;fill-rule:nonzero;"/><path id="G" d="M59.069,27.672c-1.026,0.494 -2.152,0.878 -3.377,1.153c-1.225,0.275 -2.636,0.413 -4.231,0.413c-1.596,0 -3.125,-0.261 -4.474,-0.783c-1.349,-0.522 -2.508,-1.254 -3.476,-2.194c-0.969,-0.94 -1.723,-2.061 -2.265,-3.363c-0.541,-1.301 -0.813,-2.74 -0.813,-4.317c0,-1.576 0.28,-3.073 0.841,-4.373c0.56,-1.3 1.33,-2.408 2.309,-3.32c0.978,-0.911 2.132,-1.614 3.462,-2.109c1.329,-0.493 2.773,-0.741 4.33,-0.741c1.558,0 3.092,0.233 4.431,0.698c1.34,0.466 2.418,1.079 3.235,1.838l-2.479,2.679c-0.513,-0.57 -1.23,-1.055 -2.152,-1.454c-0.921,-0.399 -1.923,-0.599 -3.006,-0.599c-1.083,0 -2.028,0.19 -2.892,0.57c-0.865,0.381 -1.6,0.903 -2.208,1.568c-0.609,0.665 -1.078,1.444 -1.411,2.336c-0.332,0.894 -0.498,1.862 -0.498,2.906c-0,1.044 0.166,2.076 0.498,2.977c0.332,0.903 0.807,1.686 1.425,2.351c0.618,0.666 1.368,1.183 2.251,1.553c0.882,0.37 1.885,0.556 3.006,0.556c1.539,0 2.878,-0.237 4.018,-0.712l-0,-5.128l-4.245,-0l-0,-2.964l7.722,-0l-0,10.457l-0.001,0.002Z" style="fill:#0f1031;fill-rule:nonzero;"/></g></g><g id="Logo-9"><path id="C-2" d="M18.483,25.618c-3.93,-0 -7.117,-3.186 -7.117,-7.116c0,-3.93 3.186,-7.116 7.117,-7.116c1.966,0 3.745,0.797 5.032,2.084l2.517,-2.516c-1.932,-1.931 -4.6,-3.126 -7.549,-3.126c-5.896,-0 -10.675,4.778 -10.675,10.674c-0,5.896 4.779,10.675 10.675,10.675c2.949,-0 5.617,-1.197 7.549,-3.13l-2.515,-2.515c-1.288,1.289 -3.067,2.086 -5.032,2.086l-0.002,-0Z" style="fill:#0d97ce;fill-rule:nonzero;"/><path id="G-2" d="M36.341,18.377l-12.754,-0l7.22,7.218c-2.458,4.267 -7.064,7.139 -12.341,7.139c-7.861,-0 -14.233,-6.372 -14.233,-14.233c-0,-7.862 6.371,-14.231 14.231,-14.231c3.931,0 7.489,1.593 10.065,4.169l2.515,-2.516c-3.218,-3.22 -7.667,-5.211 -12.58,-5.211c-9.824,-0 -17.79,7.965 -17.79,17.79c0,9.825 7.966,17.79 17.79,17.79c6.257,0 11.757,-3.229 14.929,-8.111l0.001,0c1.862,-2.81 2.946,-6.181 2.946,-9.806l0.001,0.002Z" style="fill:#0f1031;fill-rule:nonzero;"/></g></g></svg>